<?xml version="1.0" encoding="UTF-8"?>
<svg width="46px" height="47px" viewBox="0 0 46 47" version="1.1" xmlns="http://www.w3.org/2000/svg" xmlns:xlink="http://www.w3.org/1999/xlink">
    <!-- Generator: Sketch 42 (36781) - http://www.bohemiancoding.com/sketch -->
    <title>@</title>
    <desc>Created with Sketch.</desc>
    <defs></defs>
    <g id="Resume" stroke="none" stroke-width="1" fill="none" fill-rule="evenodd">
        <g id="my-cv" transform="translate(-515.000000, -3545.000000)" stroke="#F08475" fill="#F08475">
            <g id="get-in-touch" transform="translate(0.000000, 3372.000000)">
                <g id="right" transform="translate(515.000000, 174.000000)">
                    <path d="M21.9912045,15.2824553 C20.193712,15.2824553 18.7871952,15.9475176 17.7716119,17.2776621 C16.7560287,18.6078065 16.2482446,20.4502087 16.2482446,22.8049239 C16.2482446,25.1416642 16.7560287,26.9840663 17.7716119,28.3321857 C18.7871952,29.6803051 20.1757373,30.3543547 21.93728,30.3543547 C23.7886973,30.3543547 25.262619,29.6713178 26.3590895,28.3052235 C27.4555599,26.9391292 28.0037869,25.1057143 28.0037869,22.8049239 C28.0037869,20.5041335 27.4600536,18.6752123 26.3725706,17.3181054 C25.2850876,15.9609986 23.8246469,15.2824553 21.9912045,15.2824553 Z M22.9348834,0.18359375 C29.3159818,0.18359375 34.5151509,2.02599594 38.5325466,5.71085558 C42.5499424,9.39571523 44.5586101,14.1679863 44.5586101,20.0278118 C44.5586101,24.4136936 43.6463964,27.9052704 41.8219415,30.5026471 C39.9974866,33.1000238 37.5304651,34.3986926 34.4208031,34.3986926 C32.8390097,34.3986926 31.4954042,33.9717945 30.3899463,33.1179856 C29.2844884,32.2641767 28.6508818,31.1812037 28.4891074,29.8690341 L28.0577114,29.8690341 C26.8533914,32.7270472 24.6065595,34.1560323 21.3171482,34.1560323 C18.5130599,34.1560323 16.2482533,33.1000213 14.5226605,30.9879676 C12.7970677,28.8759139 11.9342842,26.1123106 11.9342842,22.6970749 C11.9342842,19.4256385 12.806055,16.7519085 14.5496227,14.6758047 C16.2931905,12.5997008 18.5490097,11.5616645 21.3171482,11.5616645 C22.7371673,11.5616645 24.0133678,11.9031829 25.1457881,12.5862301 C26.2782084,13.2692772 27.1050425,14.194972 27.6263153,15.3633421 L28.0577114,15.3633421 L28.0577114,12.0739473 L32.1290116,12.0739473 L32.1290116,27.9007897 C32.1290116,29.8960064 33.1445796,30.8935997 35.1757461,30.8935997 C36.883364,30.8935997 38.2404505,29.9005 39.2470463,27.9142708 C40.2536421,25.9280416 40.7569325,23.2812736 40.7569325,19.9738873 C40.7569325,15.1026826 39.0763022,11.1527521 35.7149912,8.12397721 C32.3536802,5.09520233 27.9768516,3.58083761 22.5843741,3.58083761 C19.0792637,3.58083761 15.9606609,4.40767176 13.2284723,6.06136487 C10.4962837,7.71505798 8.35280604,9.9888519 6.79797502,12.8828148 C5.243144,15.7767778 4.46574015,19.0931017 4.46574015,22.8318861 C4.46574015,28.5838622 6.18681341,33.1763866 9.62901157,36.6095973 C13.0712097,40.042808 17.6772152,41.7593876 23.4471662,41.7593876 C25.2985834,41.7593876 27.055606,41.6425524 28.7182866,41.4088784 C30.3809672,41.1752043 31.6346994,40.8606479 32.4795209,40.4651995 L32.4795209,43.8624434 C29.9270815,44.7432147 26.898352,45.1835938 23.3932416,45.1835938 C18.755711,45.1835938 14.7383755,44.2623927 11.3411146,42.4199628 C7.94385378,40.577533 5.31506042,37.971208 3.45465567,34.6009095 C1.59425092,31.2306111 0.6640625,27.2537185 0.6640625,22.6701126 C0.6640625,18.2123312 1.60323825,14.29835 3.48161792,10.9280515 C5.3599976,7.55775305 7.9708163,4.92446602 11.3141524,3.02811143 C14.6574884,1.13175683 18.5310267,0.18359375 22.9348834,0.18359375 Z" id="@"></path>
                </g>
            </g>
        </g>
    </g>
</svg>