<?xml version="1.0" encoding="UTF-8"?>
<svg width="48px" height="30px" viewBox="0 0 48 30" version="1.1" xmlns="http://www.w3.org/2000/svg" xmlns:xlink="http://www.w3.org/1999/xlink">
    <!-- Generator: Sketch 42 (36781) - http://www.bohemiancoding.com/sketch -->
    <title>Behance</title>
    <desc>Created with Sketch.</desc>
    <defs></defs>
    <g id="Resume" stroke="none" stroke-width="1" fill="none" fill-rule="evenodd">
        <g id="my-cv" transform="translate(-515.000000, -3640.000000)" fill="#F08475">
            <g id="get-in-touch" transform="translate(0.000000, 3372.000000)">
                <g id="right" transform="translate(515.000000, 174.000000)">
                    <path d="M30.6717676,99.0060325 L43.382997,99.0060325 L43.382997,95.3642691 L30.6717676,95.3642691 L30.6717676,99.0060325 L30.6717676,99.0060325 Z M33.6830646,106.952204 C32.8730906,107.776334 32.3622708,108.892807 32.1534273,110.301624 L42.0396255,110.301624 C41.9352038,108.798144 41.4215617,107.662181 40.5128104,106.879814 C39.5927703,106.103016 38.4610645,105.716009 37.1064041,105.716009 C35.6388555,105.716009 34.4930386,106.128074 33.6830646,106.952204 L33.6830646,106.952204 L33.6830646,106.952204 Z M42.26258,102.063109 C43.7950395,102.736891 45.0565669,103.806032 46.0499845,105.264965 C46.9559136,106.551276 47.5372887,108.043619 47.8025763,109.739211 C47.9577978,110.730394 48.0198864,112.167053 47.9944865,114.035267 L32.0123169,114.035267 C32.108272,116.204176 32.864624,117.727146 34.309595,118.598608 C35.1844798,119.141531 36.2371638,119.414385 37.4732913,119.414385 C38.7743297,119.414385 39.8383025,119.083063 40.6539209,118.423202 C41.1026521,118.064037 41.4977614,117.568445 41.8364265,116.933643 L47.6925102,116.933643 C47.5372887,118.214385 46.826092,119.520186 45.5673868,120.845476 C43.6031293,122.947564 40.8514755,124 37.3152476,124 C34.3942613,124 31.8175844,123.114617 29.5908615,121.338283 C27.3528498,119.564733 26.2408994,116.67471 26.2408994,112.676566 C26.2408994,108.926218 27.248428,106.050116 29.2606631,104.04826 C31.2785425,102.051972 33.8890859,101.046868 37.1035819,101.046868 C39.0142174,101.046868 40.7329427,101.386543 42.26258,102.063109 L42.26258,102.063109 L42.26258,102.063109 Z M5.91252789,110.379582 L5.91252789,118.183759 L13.1148053,118.183759 C14.4017326,118.183759 15.406439,118.011137 16.1204579,117.668677 C17.4214963,117.028306 18.0706043,115.814385 18.0706043,114.015777 C18.0706043,112.490023 17.4440739,111.44594 16.1825465,110.875174 C15.4769942,110.557773 14.4863989,110.390719 13.2164048,110.379582 L5.91252789,110.379582 L5.91252789,110.379582 Z M5.91252789,99.0812065 L5.91252789,105.537819 L13.1260941,105.537819 C14.4101992,105.537819 15.4572388,105.295592 16.2643906,104.811137 C17.0658979,104.326682 17.4694738,103.469142 17.4694738,102.244084 C17.4694738,100.87703 16.9388985,99.9777262 15.8777479,99.537819 C14.9577078,99.2343387 13.7893133,99.0812065 12.3697421,99.0812065 L5.91252789,99.0812065 L5.91252789,99.0812065 Z M22.021697,97.1183295 C22.927626,98.362877 23.3820017,99.849652 23.3820017,101.584223 C23.3820017,103.36891 22.927626,104.808353 22.0104081,105.8942 C21.4967661,106.50116 20.7432363,107.058005 19.7469965,107.559165 C21.2597005,108.104872 22.399873,108.965197 23.1759804,110.142923 C23.9436213,111.317865 24.3302639,112.748956 24.3302639,114.430626 C24.3302639,116.165197 23.8899993,117.721578 23.0066479,119.096984 C22.4478505,120.007425 21.7479427,120.77587 20.9069244,121.399536 C19.9614844,122.115081 18.8467118,122.60232 17.5569623,122.869606 C16.2672128,123.134107 14.8730415,123.262181 13.3659819,123.262181 L0,123.262181 L0,94 L14.3339996,94 C17.9520716,94.0529002 20.5118151,95.0914153 22.021697,97.1183295 L22.021697,97.1183295 L22.021697,97.1183295 Z" id="Behance"></path>
                </g>
            </g>
        </g>
    </g>
</svg>