<?xml version="1.0" encoding="UTF-8"?>
<svg width="84px" height="64px" viewBox="0 0 84 64" version="1.1" xmlns="http://www.w3.org/2000/svg" xmlns:xlink="http://www.w3.org/1999/xlink">
    <!-- Generator: Sketch 42 (36781) - http://www.bohemiancoding.com/sketch -->
    <title>drawing</title>
    <desc>Created with Sketch.</desc>
    <defs>
        <polygon id="path-1" points="34.2401064 43.9658903 34.9318257 45.6968309 35.340569 47.01864 36.0951719 48.8125239 37.698703 50.8896525 39.0821417 52.6205931 37.2270762 54.1941754 36.2317279 55.3841928 30.4356501 62.3138603 25.5307313 61.180881 24.7761284 53.4388559"></polygon>
        <path d="M3.64703171,29.6814597 C3.64703171,21.5186721 7.53648771,2.0507616 7.53648771,2.0507616 C8.03031184,-0.538016535 8.83848276,-0.537685596 9.33039466,2.06440227 C9.33039466,2.06440227 13.2142391,21.4195557 13.2142391,29.6814603 C13.2142391,38.0407729 12.370291,57.5505197 12.370291,57.5505197 C12.2614785,60.1887325 10.035401,62.3274266 7.38513533,62.3274266 L9.5009446,62.3274266 C6.85653161,62.3274266 4.62102112,60.1943989 4.51046587,57.55194 C4.51046587,57.55194 3.64703171,38.1398894 3.64703171,29.6814597 Z" id="path-3"></path>
        <mask id="mask-4" maskContentUnits="userSpaceOnUse" maskUnits="objectBoundingBox" x="0" y="0" width="9.56720738" height="62.2164229" fill="white">
            <use xlink:href="#path-3"></use>
        </mask>
        <path d="M3.64703171,51.4645113 C3.64703171,49.0946697 3.40420947,47.4549985 3.40420947,47.4549985 C3.12875111,44.655215 5.17669572,42.4005656 7.99179273,42.4191867 L9.04262813,42.4261377 C11.8517388,42.4447191 13.8345102,44.7168444 13.5087017,47.5140042 C13.5087017,47.5140042 13.2142391,49.065894 13.2142391,51.4645115 C13.2142391,53.8914087 12.8413651,55.9040249 12.8413651,55.9040249 C12.4723856,58.6866275 9.8943477,60.9423727 7.09385863,60.9423727 L9.7922213,60.9423727 C6.98694063,60.9423727 4.39015003,58.6967856 4.02578663,55.8914838 C4.02578663,55.8914838 3.64703171,53.9201844 3.64703171,51.4645113 Z" id="path-5"></path>
        <mask id="mask-6" maskContentUnits="userSpaceOnUse" maskUnits="objectBoundingBox" x="0" y="0" width="10.1643451" height="18.5233005" fill="white">
            <use xlink:href="#path-5"></use>
        </mask>
        <polygon id="path-7" points="54.268525 -20.0159672 70.4924872 -11.3297928 82.1888321 -0.755319518 86.5277988 13.4069214 74.4541524 22.4707557 52.7593192 35.1223576 51.8160655 35.1223576 50.4955105 35.8776771 48.9863047 35.8776771 46.722496 35.3111875 44.8359888 34.1782082 42.9494815 33.0452289 41.4402757 31.7234198 40.4970221 30.5904405 39.5537685 29.0798015 39.176467 27.1915027"></polygon>
        <path d="M2.26359307,29.6814597 C2.26359307,21.5186721 6.15304907,2.0507616 6.15304907,2.0507616 C6.6468732,-0.538016535 7.45504412,-0.537685596 7.94695602,2.06440227 C7.94695602,2.06440227 11.8308004,21.4195557 11.8308004,29.6814603 C11.8308004,38.0407729 10.9868523,57.5505197 10.9868523,57.5505197 C10.8780399,60.1887325 8.65196233,62.3274266 6.00169669,62.3274266 L8.11750596,62.3274266 C5.47309297,62.3274266 3.23758248,60.1943989 3.12702723,57.55194 C3.12702723,57.55194 2.26359307,38.1398894 2.26359307,29.6814597 Z" id="path-9"></path>
        <mask id="mask-10" maskContentUnits="userSpaceOnUse" maskUnits="objectBoundingBox" x="0" y="0" width="9.56720738" height="62.2164229" fill="white">
            <use xlink:href="#path-9"></use>
        </mask>
        <path d="M2.16204217,52.7750851 C2.16204217,50.4052435 1.91921992,48.7655723 1.91921992,48.7655723 C1.64376156,45.9657887 3.69170618,43.7111394 6.50680319,43.7297604 L7.55763859,43.7367114 C10.3667492,43.7552929 12.3495207,46.0274181 12.0237122,48.8245779 C12.0237122,48.8245779 11.7292495,50.3764678 11.7292495,52.7750852 C11.7292495,55.2019824 11.3563756,57.2145987 11.3563756,57.2145987 C10.9873961,59.9972013 8.40935816,62.2529464 5.60886909,62.2529464 L8.30723176,62.2529464 C5.50195109,62.2529464 2.90516049,60.0073594 2.54079709,57.2020576 C2.54079709,57.2020576 2.16204217,55.2307582 2.16204217,52.7750851 Z" id="path-11"></path>
        <mask id="mask-12" maskContentUnits="userSpaceOnUse" maskUnits="objectBoundingBox" x="0" y="0" width="10.1643451" height="18.5233005" fill="white">
            <use xlink:href="#path-11"></use>
        </mask>
    </defs>
    <g id="Resume" stroke="none" stroke-width="1" fill="none" fill-rule="evenodd" opacity="0.730355525">
        <g id="my-cv_for-GitHub" transform="translate(-546.000000, -3128.000000)">
            <g id="interests" transform="translate(147.000000, 3035.000000)">
                <g id="drawing" transform="translate(395.000000, 94.000000)">
                    <g transform="translate(5.000000, 0.000000)">
                        <path d="M44.035919,46.9946038 C45.807755,55.3821345 52.5180625,61.621484 60.5254406,61.621484 C69.8850784,61.621484 77.472564,53.0968307 77.472564,42.5811378 C77.472564,33.9620932 72.3752621,26.6806364 65.3827836,24.3344034 C62.6667538,15.4082413 53.0827214,6.70401996 40.0491201,2.46914619 C22.246031,-3.31542809 4.7484519,1.42934495 0.967183192,13.0668934 C-2.81408551,24.7044418 8.55284576,38.8278628 26.3559348,44.6124371 C32.4659548,46.597703 38.53999,47.3427566 44.035919,46.9946038 Z" id="Combined-Shape" stroke="#4A4A4A" stroke-width="2" fill="#FFFFFF"></path>
                        <g id="Group-3" transform="translate(8.992351, 4.846634)">
                            <g id="Group-2" stroke="#4A4A4A" stroke-width="2">
                                <ellipse id="Oval-3" transform="translate(36.062716, 11.428569) rotate(28.000000) translate(-36.062716, -11.428569) " cx="36.0627158" cy="11.4285692" rx="4.84203525" ry="2.77296686"></ellipse>
                                <ellipse id="Oval-3" fill="#4A4A4A" transform="translate(45.558136, 30.988236) rotate(34.000000) translate(-45.558136, -30.988236) " cx="45.5581356" cy="30.9882362" rx="7.86044684" ry="3.81099916"></ellipse>
                                <ellipse id="Oval-3" transform="translate(20.502074, 4.498947) rotate(26.000000) translate(-20.502074, -4.498947) " cx="20.5020739" cy="4.49894707" rx="3.80344202" ry="2.77296686"></ellipse>
                                <ellipse id="Oval-3" transform="translate(4.596586, 10.501494) rotate(19.000000) translate(-4.596586, -10.501494) " cx="4.59658646" cy="10.5014943" rx="3.80344202" ry="2.77296686"></ellipse>
                                <ellipse id="Oval-3" transform="translate(14.856752, 27.359082) rotate(30.000000) translate(-14.856752, -27.359082) " cx="14.8567516" cy="27.3590822" rx="5.53375457" ry="3.46534309"></ellipse>
                            </g>
                            <mask id="mask-2" fill="white">
                                <use xlink:href="#path-1"></use>
                            </mask>
                            <g id="Path-4"></g>
                            <g id="brush-tool" mask="url(#mask-2)">
                                <g transform="translate(52.105601, 26.273521) scale(-1, 1) rotate(149.000000) translate(-52.105601, -26.273521) translate(40.605601, -11.226479)">
                                    <use id="Rectangle-11" stroke="#3D3D3D" mask="url(#mask-4)" stroke-width="5.75600004" fill="none" xlink:href="#path-3"></use>
                                    <use id="Rectangle-11-Copy" stroke="#7C7161" mask="url(#mask-6)" stroke-width="9.75601947" fill="#C1C1C0" fill-rule="evenodd" xlink:href="#path-5"></use>
                                    <path d="M2.97896793,57.2863892 C3.6592257,55.0112811 5.74467909,53.3551247 8.21183494,53.3551247 C10.264324,53.3551247 12.0526369,54.5013496 12.9874721,56.1966031 C13.6289331,56.842804 16.3110703,59.7485115 16.3110702,63.1562871 C16.31107,67.0269129 20.1184098,71.69815 20.11841,71.6981494 C20.11841,71.6981491 9.48788799,73.4533927 5.13116993,69.1850723 C0.828693357,64.9698927 2.95734658,57.2890692 2.95734658,57.2890692 L2.97896793,57.2863892 Z" id="Oval-2" stroke="#CC695B" stroke-width="4.87800973" fill="#E59489" fill-rule="evenodd" transform="translate(11.274597, 62.705375) rotate(16.000000) translate(-11.274597, -62.705375) "></path>
                                    <path d="M5.00709908,57.0413603 C5.59901881,55.0616969 7.41365597,53.6206083 9.56042785,53.6206083 C11.3463814,53.6206083 12.9024646,54.6179849 13.7159024,56.0930934 C14.2740635,56.6553789 16.6078993,59.1837523 16.6078993,62.1489953 C16.6078992,65.516983 20.1881862,71.8284081 20.1881864,71.8284075 C20.1881864,71.8284072 10.6707731,71.1089225 6.87981689,67.3948846 C3.13605839,63.7270868 4.98828547,57.0436922 4.98828547,57.0436922 L5.00709908,57.0413603 Z" id="Oval-2" stroke="#F08677" stroke-width="4.87800973" fill="#FFB1A6" fill-rule="evenodd" transform="translate(12.359145, 62.724508) rotate(16.000000) translate(-12.359145, -62.724508) "></path>
                                </g>
                            </g>
                            <mask id="mask-8" fill="white">
                                <use xlink:href="#path-7"></use>
                            </mask>
                            <g id="Path-3"></g>
                            <g id="brush-tool" mask="url(#mask-8)">
                                <g transform="translate(49.433368, 27.583090) scale(-1, 1) rotate(149.000000) translate(-49.433368, -27.583090) translate(40.933368, -7.416910)">
                                    <use id="Rectangle-11" stroke="#4A4A4A" mask="url(#mask-10)" stroke-width="5.75600004" fill="#FFFFFF" xlink:href="#path-9"></use>
                                    <use id="Rectangle-11-Copy" stroke="#4A4A4A" mask="url(#mask-12)" stroke-width="5.756" fill="#C1C1C0" xlink:href="#path-11"></use>
                                    <path d="M2.41675316,55.2931839 C2.8731774,53.7666824 4.27242858,52.6554714 5.92778599,52.6554714 C7.30491946,52.6554714 8.50480194,53.42454 9.13203686,54.5619834 C9.56243012,54.995557 11.3620309,56.945164 11.3620309,59.2316376 C11.3620308,61.8286641 14.1227595,66.6953499 14.1227596,66.6953494 C14.1227596,66.6953492 6.78396371,66.1405607 3.86078983,63.2766979 C0.974009709,60.4484904 2.40224615,55.2949821 2.40224615,55.2949821 L2.41675316,55.2931839 Z" id="Oval-2" stroke="#4A4A4A" stroke-width="2.87800002" fill="#716C73" transform="translate(8.085853, 59.675410) rotate(16.000000) translate(-8.085853, -59.675410) "></path>
                                    <path d="M2.89006795,57.1933487 C3.34649219,55.6668472 4.74574337,54.5556362 6.40110078,54.5556362 C7.77823425,54.5556362 8.97811674,55.3247047 9.60535165,56.4621482 C10.0357449,56.8957217 11.8353457,58.8453288 11.8353456,61.1318023 C11.8353456,63.7288288 14.5960743,68.5955146 14.5960744,68.5955142 C14.5960744,68.595514 7.2572785,68.0407254 4.33410462,65.1768626 C1.4473245,62.3486551 2.87556094,57.1951468 2.87556094,57.1951468 L2.89006795,57.1933487 Z" id="Oval-2" stroke="#716C73" stroke-width="2.87800002" fill="#716C73" transform="translate(8.559167, 61.575575) rotate(16.000000) translate(-8.559167, -61.575575) "></path>
                                </g>
                            </g>
                        </g>
                        <path d="M75.7432657,7.61613848 C76.049107,7.4936858 74.867024,8.41633501 74.3598271,9.34707904 C73.8526302,10.2778231 74.0868399,10.502122 73.6681077,11.4242077 C73.2493755,12.3462934 73.2012395,12.502288 72.6305288,13.1551483 C72.059818,13.8080085 71.8739785,13.9584062 71.2470901,14.1937126 C70.6202017,14.429019 70.1395922,14.6540505 69.8636515,14.1937126 C69.5877108,13.7333747 69.8590889,13.2519709 70.2095111,12.4627721 C70.5599334,11.6735732 70.6312711,11.6944235 71.2470901,11.0780196 C71.8629092,10.4616157 71.0687336,11.241977 72.6305288,10.0394553 C74.1923239,8.83693349 75.4374245,7.73859115 75.7432657,7.61613848 Z" id="Path-2" fill="#FFFFFF"></path>
                    </g>
                </g>
            </g>
        </g>
    </g>
</svg>