<?xml version="1.0" encoding="UTF-8"?>
<svg width="45px" height="44px" viewBox="0 0 45 44" version="1.1" xmlns="http://www.w3.org/2000/svg" xmlns:xlink="http://www.w3.org/1999/xlink">
    <!-- Generator: Sketch 48.2 (47327) - http://www.bohemiancoding.com/sketch -->
    <title>Shape</title>
    <desc>Created with Sketch.</desc>
    <defs></defs>
    <g id="my-cv" stroke="none" stroke-width="1" fill="none" fill-rule="evenodd" transform="translate(-167.000000, -3456.000000)">
        <g id="Octicons-mark-github" transform="translate(167.000000, 3456.000000)" fill="#F08475" fill-rule="nonzero">
            <path d="M22.5,0 C10.0744629,0 0,10.0762648 0,22.5040244 C0,32.4484298 6.44625,40.8819448 15.3877148,43.8570032 C16.5124512,44.0630557 16.9230762,43.3680241 16.9230762,42.7746563 C16.9230762,42.238955 16.9024658,40.4643896 16.8914795,38.5853915 C10.6347656,39.9451708 9.31227539,35.9317187 9.31227539,35.9317187 C8.28782227,33.3329874 6.81424805,32.6407249 6.81424805,32.6407249 C4.76942871,31.2452117 6.969375,31.2726824 6.969375,31.2726824 C9.22842773,31.4292436 10.4177637,33.5912123 10.4177637,33.5912123 C12.4255371,37.030548 15.685708,36.0361075 16.9656152,35.4592221 C17.1701367,34.0087674 17.7524121,33.0143269 18.3938379,32.4539239 C13.3991895,31.8853017 8.145,29.9540872 8.145,21.3310022 C8.145,18.8723496 9.02254395,16.86703 10.4589844,15.2915725 C10.2296338,14.7201813 9.45509766,12.4304847 10.6814355,9.33319251 C10.6814355,9.33319251 12.5683594,8.72883638 16.8694629,11.6407341 C18.662959,11.1394042 20.5869727,10.8921676 22.4999561,10.8839044 C24.4115771,10.8921676 26.3369092,11.1421293 28.1332178,11.6434592 C32.4261475,8.72883638 34.3157959,9.3359176 34.3157959,9.3359176 C35.5462646,12.4359788 34.7717285,14.7229064 34.5410156,15.2915725 C35.9829492,16.86703 36.8536377,18.8723935 36.8536377,21.3310022 C36.8536377,29.9760638 31.5911865,31.8797636 26.5786963,32.4374415 C27.38896,33.1351981 28.1057959,34.5032406 28.1057959,36.6020046 C28.1057959,39.6100718 28.0755615,42.0357156 28.0755615,42.7774253 C28.0755615,43.3762873 28.4847803,44.076769 29.6246338,43.8570032 C38.5592871,40.8764506 45,32.4429356 45,22.5040244 C45,10.0762648 34.9255371,0 22.5,0 Z" id="Shape"></path>
        </g>
    </g>
</svg>