<?xml version="1.0" encoding="UTF-8"?>
<svg width="48px" height="45px" viewBox="0 0 48 45" version="1.1" xmlns="http://www.w3.org/2000/svg" xmlns:xlink="http://www.w3.org/1999/xlink">
    <!-- Generator: Sketch 46.2 (44496) - http://www.bohemiancoding.com/sketch -->
    <title>linkedin-logo</title>
    <desc>Created with Sketch.</desc>
    <defs></defs>
    <g id="Resume" stroke="none" stroke-width="1" fill="none" fill-rule="evenodd">
        <g id="my-cv_for-GitHub" transform="translate(-306.000000, -2851.000000)" fill-rule="nonzero" fill="#F08475">
            <g id="linkedin-logo" transform="translate(306.000000, 2851.000000)">
                <path d="M47.9016613,27.5835801 L47.9016613,44.9519417 L37.6347842,44.9519417 L37.6347842,28.7468083 C37.6347842,24.6759466 36.1497912,21.8977427 32.433522,21.8977427 C29.5966218,21.8977427 27.9083805,23.7700485 27.1656613,25.5811893 C26.8948121,26.228665 26.8250951,27.1298665 26.8250951,28.0362015 L26.8250951,44.9519417 L16.5547657,44.9519417 C16.5547657,44.9519417 16.6930858,17.5057646 16.5547657,14.6621359 L26.8240928,14.6621359 L26.8240928,18.9555947 C26.8032668,18.9877063 26.7762042,19.0223301 26.7566032,19.0534587 L26.8240928,19.0534587 L26.8240928,18.9555947 C28.1884733,16.8946602 30.6251137,13.9505461 36.0790719,13.9505461 C42.8361578,13.9504369 47.9016613,18.2797209 47.9016613,27.5835801 Z M5.81156381,0.0609466019 C2.29809745,0.0609466019 0,2.32110437 0,5.29328883 C0,8.20070388 2.23161021,10.5294539 5.67524826,10.5294539 L5.74385151,10.5294539 C9.32536427,10.5294539 11.5527425,8.20114078 11.5527425,5.29328883 C11.4852529,2.32110437 9.32536427,0.0609466019 5.81156381,0.0609466019 Z M0.609967517,44.9519417 L10.8763991,44.9519417 L10.8763991,14.6621359 L0.609967517,14.6621359 L0.609967517,44.9519417 Z" id="LinkedIn"></path>
            </g>
        </g>
    </g>
</svg>