<?xml version="1.0" encoding="UTF-8"?>
<svg width="280px" height="364px" viewBox="0 0 280 364" version="1.1" xmlns="http://www.w3.org/2000/svg" xmlns:xlink="http://www.w3.org/1999/xlink">
    <!-- Generator: Sketch 42 (36781) - http://www.bohemiancoding.com/sketch -->
    <title>face copy</title>
    <desc>Created with Sketch.</desc>
    <defs></defs>
    <g id="Symbols" stroke="none" stroke-width="1" fill="none" fill-rule="evenodd">
        <g id="face-gitHUB">
            <g id="face-copy">
                <g id="Symbols">
                    <g id="face-copy">
                        <g id="Group">
                            <path d="M22,74.5 C24.2,85.9 24.6,93.9 32,102.7 C39.9,112.3 49.9,116.9 60.7,123.2 C64.7,125.5 71,125.1 75.5,125.7 C80.1,126.3 84.2,128.9 88.4,130.9 C100.6,136.6 106.5,136.9 120,136.5 C112,133.8 98.7,132.1 92,127 C89,124.7 88.1,117.7 84.5,116.3 C78.7,114.1 72.9,111.9 67.2,109.6 C60.6,107.1 49.1,104 44.8,98.4 C37.6,89 31.1,82.1 22,74.5 Z" id="Path-2" fill="#E3DBDB" fill-rule="nonzero"></path>
                            <path d="M116,15.5 C95.4,22.2 76.9,28.3 58.6,40.2 C53.7,43.4 33.8,52.3 36,58.1 C39.5,67.2 41.9,80.9 48.6,88.2 C57.2,97.5 65.7,106.9 74.3,116.2 C80,122.4 89.1,133.7 96.7,137.2 C103.2,140.3 119,141.6 126.2,141 C138.3,140 150.5,139 162.6,137.9 C156.3,116.9 150.4,95.7 143.7,74.8 C136.6,52.7 127.8,35.4 116,15.5 Z" id="Path-4" fill="#BCAAA8" fill-rule="nonzero"></path>
                            <path d="M145.5,2 C126.7,9.1 106.6,17.9 87.5,24.3 C78.2,27.4 70.5,27.1 60.7,28.7 C52.4,30.1 43.5,37.1 36,41 C44.2,34.1 52.3,27.2 60.5,20.3 C66.6,15.1 77.9,13.1 85.4,10.3 C107.2,2.1 122.4,-0.8 145.5,2 Z" id="Path-6" stroke="#9C8D8C" fill="#9C8D8C" fill-rule="nonzero"></path>
                            <path d="M18,62.5 C19.7,66.6 23.8,72.6 24,77 C24.2,82.1 20.1,89.5 18.5,94.5 C15.5,103.9 14,113.7 14,123.6 C14,133.4 10.3,144.4 12.3,153.8 C13.4,158.7 16.5,165.9 16,171 C15.5,176.4 11.5,182.9 9.5,188 L6.5,153.8 C5.8,145.2 1.5,133.9 3.1,125.4 C7.1,104.2 11.5,83.2 18,62.5 Z" id="Path-7" stroke="#9C8D8C" fill="#9C8D8C" fill-rule="nonzero"></path>
                            <path d="M112.5,16.5 C125.1,12 141.8,1.6 155.3,3.9 C172.1,6.8 187.6,9.8 201.6,20.3 C230.4,41.7 246.4,69.5 259.4,102.4 C264.6,115.5 271.4,129.7 271.6,143.9 C272,163.2 267.9,177.2 260.2,194.9 C257,202.1 253.2,208.9 249.3,215.8 C245.8,222.2 251.2,231.2 253.5,237.8 C255.6,243.8 255,243.6 261.3,243.6 C267.8,243.6 267.1,243.9 267.1,237.4 C267.1,233 265.1,230.2 263,226.3 C261,222.5 262.1,219.3 262.6,215.1 C268.3,220.3 273.7,225.7 279.1,231.1 C281.4,233.4 278.7,247.1 277.3,250.5 C273.1,260.8 273.9,266.8 262.7,267.7 C253.3,268.4 248.9,266.5 247.6,276.6 C246.3,286.6 240.9,288.8 233.1,295.2 C227.7,299.7 223.4,306.9 218.6,312.2 C216.4,314.7 204.5,327.3 208.1,331.1 C214.3,337.6 220.6,343.9 227.1,350 C211.3,352 193.7,344.5 194.9,325.8 C195.6,315 197.9,312.6 204.7,304 C208.8,298.8 215.7,292.5 217.9,286.3 C222.3,273.7 222.9,274.6 212.2,266.6 C204.1,260.6 200.5,257.9 200.9,247.6 C201.3,236.8 197,235.9 187.3,235.3 C180.8,234.9 176.7,224.7 177.6,218 C178.5,210.9 181.4,202.8 178.6,196.1 C175.2,187.9 172,180.5 167.3,173 C158.3,158.7 161.4,146.2 157.4,130.7 C153.6,115.9 151,100.6 144.6,86.7 C135.3,66.4 126,46 116.7,25.7 C115.3,22.6 113.9,19.6 112.5,16.5 Z" id="Path-8" fill="#BCAAA8" fill-rule="nonzero"></path>
                            <path d="M122.5,16.5 C139,29.8 151.7,40.5 164.1,57.5 C176.8,75 189.5,92.1 200.7,110.5 C205.5,118.4 211.8,126.3 214.7,135.1 C219.2,148.8 221.6,155.1 231.3,165.4 C247.2,182.3 237.8,204.3 225.5,220.5 C222.3,216.5 219.1,212.5 215.9,208.5 C214.5,206.8 221.9,196.7 223.1,194.6 C223.2,194.4 205.3,181.7 202.4,178.5 C194.9,170.2 187.7,161.8 180.5,153.2 C172.8,144 173.3,134.9 171.6,122.9 C168.9,103.7 158,86.3 148.2,69.6 C137.3,51.1 125.8,34.7 112.4,17.9 C115.8,17.5 119.2,17 122.5,16.5 Z" id="Path-9" fill="#BCAAA8" fill-rule="nonzero"></path>
                            <path d="M149.5,77 C155.9,87.6 162.6,98 167.8,109.3 C174.1,123.2 174.8,133.7 175.9,149 C176.5,157.4 194.5,170.9 200.3,177.3 C206.9,184.5 211.4,200.1 217.1,208.9 C224.2,219.9 231.3,230.8 237.5,242.3 C240.7,248.2 243,251.7 243.3,258.2 C243.6,264.4 246.5,275.2 244.5,281 C241.4,290.3 225.5,301.3 218.3,307.5 C213.6,311.6 209.9,316.7 205.9,321.4 C203.7,324 207.5,335.9 208,339.4 C205.4,336.2 198.7,331.1 200.2,327 C202.1,322.1 203.4,314.1 206.7,310.1 C211.4,304.5 216.1,298.8 220.9,293.2 C225.7,287.5 223.9,284.5 222.8,276.9 C221.2,264.8 213.1,254.4 207.2,243.8 C203,236.2 188.6,226.4 188.3,218.1 C187.9,205.9 187.1,193.6 187.5,181.3 C187.8,172.7 188.9,171.3 182.6,165.8 C176.3,160.3 173.1,158.9 171.8,150.9 C167.8,125.8 156.7,101.7 149.5,77 Z" id="Path-10" fill="#B29F9D" fill-rule="nonzero"></path>
                            <path d="M147.5,4.5 C164.1,13.4 183.6,20.4 196.9,34 C213.6,51.1 223.6,67.3 235.6,88.1 C240.1,96 241.4,105.8 243.7,114.5 C246.2,124 251.3,131.7 256.2,140.3 C262,150.5 260.6,156.4 259.8,168.4 C259.4,175.2 254.4,190.4 246.1,184.5 C249,176.3 252.7,170 250.8,161.5 C248.6,151.4 246.8,144 242,135 C233,118.3 227.1,100.3 216.8,84.5 C196.2,52.7 164.7,31.2 132.1,12.5 C137.2,9.8 142.3,7.2 147.5,4.5 Z" id="Path-11" fill="#B29F9D" fill-rule="nonzero"></path>
                            <path d="M32,44.8 C36.1,54 40.3,63.2 44.4,72.4 C48.1,80.7 58,88.4 64.1,95.2 C72.9,105.2 89.8,124.1 102.6,128.7 C118.4,134.4 140.9,145.6 158.3,142.5 C168,140.8 177.6,139.5 186.9,136.3 C199.7,131.8 200.3,128.7 206.6,116.4 C190.3,121.4 179.6,123 162.6,122.7 C147.1,122.4 141.5,105.2 129.9,96.3 C118.1,87.3 104.4,85.4 96.7,72.2 C92.3,64.8 88,57.3 83.6,49.9 C80.9,45.4 83.4,33 83.4,27.6 C61.5,28.6 56.2,30 32,44.8 Z" id="Path-5" fill="#B29F9D" fill-rule="nonzero"></path>
                            <path d="M22,76 C16.1,91.4 11,104.6 11.6,121.3 C11.9,129.1 11.9,136.7 11.5,144.5 C11.1,152.3 13,159.2 13,167 C13,174.5 8.5,181.3 8.5,188.8 C8.5,197.3 9,205.8 11.6,213.9 C16.4,228.9 19.8,245.5 25.5,260 C29.4,269.9 39.2,293.6 49.9,296.7 C58.2,299.1 62.7,300.7 69.3,294.5 C76.1,288 83.4,284.9 92.4,282.1 C98.7,280.1 108,276.7 110.1,269.5 C111.1,266.2 108.9,262.3 109.9,258.9 C111.4,253.5 113.5,250.1 116.5,245.4 C117.8,243.4 120.7,239 123.1,239 C127.1,239 131.1,240.4 133.4,236.9 C139.2,228.1 143,226.1 153.6,229.7 C157.7,231.1 161.1,220.2 169.5,223 C173.3,224.3 174.6,223.5 176,227.4 C177.6,231.8 177.4,236.8 183,235 C178.5,222.2 177.2,216.8 179.2,203.6 C180.6,194.4 173,182.2 168.5,174.4 C163.1,165 158.6,160.5 158,148.5 C157.7,142.8 160.7,140.5 154.7,139.2 C148.9,137.9 142.7,137.1 137,135.4 C125.8,132 115.4,128.4 104.8,123.6 C95,119.2 88.3,111.7 77.8,108.6 C66.8,105.3 57.8,101.9 48.6,94.5 C39.9,87.7 34,76.4 22,76 Z" id="Path-12" stroke="#E8E2E2" fill="#FEF8F7" fill-rule="nonzero" opacity="0.6935"></path>
                            <path d="M91.5,116.5 C104.9,122.6 118,129.1 131.9,133.9 C138,136 144.2,136.7 150.5,137.6 C163.7,139.6 157.7,142.6 159,154.4 C160.5,168.1 173,179.7 177.7,193 C180,199.3 180,205.6 178.9,212.3 C177.6,220.4 180.6,226.8 183.4,234.5 C176.8,237.8 176.7,229 175.1,224.2 C173.9,220.5 162.7,222.8 160.4,225.2 C154.4,231.6 153.6,227.6 145.8,228.4 C136.6,229.3 139.5,234.7 132.3,238 C130.4,238.9 125.5,237.7 123.3,237.6 C120.9,237.5 118.7,242.4 117.3,244.3 C114.4,248.2 110.1,252.4 110.4,257.3 C111.1,271.2 104.2,275.6 92.3,280.6 C95.2,272.3 98,264.7 102.1,256.9 C106.8,247.9 101.2,242.2 94.9,236.7 C88.7,231.2 86.3,223.8 83.5,216.3 C82,212.2 79.4,214.3 78.9,208.7 C78.5,204.1 73,202.6 77.8,198.6 C83.1,207.9 87.8,214 97.1,219.2 C100.7,221.2 104.8,222.6 108.6,224.3 C112.1,225.8 112.5,234 116.8,233.3 C126.8,231.6 133.4,222.8 142.7,220.3 C152.3,217.8 162.9,212.8 165.7,202.1 C170.7,183.2 150.3,162.3 141.6,146.8 C137.8,140.1 122.9,135.7 116.3,132.9 C107,128.7 99.6,122.9 91.5,116.5 Z" id="Path-13" fill="#FBECEB" fill-rule="nonzero" opacity="0.37"></path>
                            <path d="M14,58 C16.3,62.7 18.2,69 21.5,73 C25,77.3 31.1,79.5 35,83.5 C39.2,87.9 42.6,93.7 46.2,98.6 C48.6,101.8 57.2,103.7 60.8,105.3 C72,110.2 80.9,113.6 93.6,112.1 C104.2,110.8 115.6,106.4 126.1,104.1 C117,103.2 101.1,105 93.3,100.3 C81.6,93.2 70.1,86.2 58.9,78.2 C49.1,71.2 42.3,63.3 36,53 C31.5,45.7 33.8,43.2 25.3,46.3 C16.4,49.6 14,48.4 14,58 Z" id="Path-3" stroke="#B29F9D" fill="#9C8D8B" fill-rule="nonzero" opacity="0.9611"></path>
                            <path d="M162.5,181 C168.1,190 168.3,199.4 163.1,208.4 C158,217.3 148.3,218.8 139.8,223.1 C136.6,224.7 118.5,237.3 115.5,232.8 C109,223 101.1,221.7 91,216 C95.9,209.4 99.2,203.4 106.5,199.6 C113,196.2 121.2,195.8 128.5,194.7 C134,193.9 145.4,192.2 147.9,186.1 C150.1,180.8 148.6,168.2 153.5,166.5 C156.7,171.2 160,175.9 162.5,181 Z" id="Path-14" fill="#FDE2EE" fill-rule="nonzero" opacity="0.3908"></path>
                            <path d="M44,147.5 C54.6,160.3 48.6,176.1 42.1,189.9 C39.7,195 32.8,206.6 35,212.5 C37.6,219.7 48.9,222.4 55.1,221.3 C66.2,219.3 88.5,218.5 73.3,203.3 C64,194 63.2,170.9 73,162 C67,158.2 62.5,148.8 55.8,146.8 C52.3,145.8 48.8,144.8 45.4,143.6 C40.4,142 39.6,145 44,147.5 Z" id="Path-16"></path>
                            <path d="M76,217.5 C69,215.9 62,214.6 54.8,214.3 C44,213.8 40.8,211.8 42.6,200.3 C44.8,185.8 55.8,173.2 50.1,158.1 C50.1,170.9 45.8,183.2 40.1,194.6 C37,200.7 35,205.9 36.3,212.8 C37.1,216.6 47.3,222.9 51.1,222.1 C46.3,211.3 71,221.2 76,217.5 Z" id="Path-17" stroke="#BEB6BC" fill="#BEB6BC" fill-rule="nonzero" opacity="0.3006"></path>
                            <path d="M52,221.5 C49.3,214.9 61.1,218.4 65,218.5 C60.6,219.2 56.4,221.2 52,221.5 Z" id="Path-18" stroke="#BEB6BC" fill="#BEB6BC" fill-rule="nonzero" opacity="0.4652"></path>
                            <path d="M75.5,217 C84.1,212.6 74.2,204.7 71.1,200.4 C67.4,195.2 66.9,188.3 66.3,182.2 C65.8,177.6 66.8,169.3 69.7,165.5 C72.5,161.7 65.8,153 60.9,152.5 C64.7,163 58.1,183 55.7,193.8 C53.7,202.9 56.4,204.2 64.9,205.5 C71.4,206.4 80.5,208 75.5,217 Z" id="Path-19" stroke="#E9DFDE" fill="#E9DFDE" fill-rule="nonzero" opacity="0.1941"></path>
                            <path d="M45,184.5 C40.6747348,190.728382 30,219.5 21.2,214 C12.4,208.5 14.5,208 14.5,205 C14.5,202 13,186.7 17,186.5 C24.9,186 37.8,185.1 45,181.5 L45,184.5 Z" id="Path-20" fill="#FCDBE7" fill-rule="nonzero" opacity="0.3215"></path>
                            <path d="M36.5,206 C34.2,212.4 36.9,215 37.5,221 C38.2,227.3 36.1,234.7 35.2,241 C33.5,252.1 34.4,264.3 34.5,275.5 C28,262.4 22.5,250.4 19,236 C14.6,218 28.3,215.2 36.5,202 L36.5,206 Z" id="Path-21" fill="#F3E6E4" fill-rule="nonzero" opacity="0.5032"></path>
                            <path d="M25,212 C26.3,211.3 27.7,210.7 29,210 C22.4,215.6 19.7,219.5 16.5,227.5 C10.4,209.1 5.8,193 12.5,174 C22.7,187.2 3.7,209.3 25,212 Z" id="Path-22" fill="#EEE0DF" fill-rule="nonzero" opacity="0.2529"></path>
                            <path d="M44,169 C38.2,168.8 15.4,174.3 19,161.8 C21.5,152.9 39.4,151.8 44.5,158.6 C41.6,148.2 20.5,149.6 16.7,158.4 C9.3,175.6 35.9,170.5 44,169 Z" id="Path-24" stroke="#706570" fill="#706570" fill-rule="nonzero" opacity="0.5774"></path>
                            <path d="M48,169.5 C42.1,170.7 36.2,171.3 30.4,172.8 C26.7,173.7 14.3,168.7 18,175.5 C24,186.7 45.3,179.4 48,169.5 Z" id="Path-25" stroke="#D0CBCB" fill="#D0CBCB" fill-rule="nonzero" opacity="0.297"></path>
                            <path d="M48.5,168.5 C44.8,168.9 12.5,171.9 19.9,161.3 C24.9723336,154.119684 34.7646882,152.620892 41.5,157 C44.9891539,159.268548 46.9984763,163.688299 48.5,168.5 Z" id="Path-23" stroke="#978F97" opacity="0.8"></path>
                            <path d="M33,155 C22.3,159.3 34.4,172.8 41.5,166.5 C48,160.7 39.2,153.9 33,155 Z" id="Path-26" stroke="#685B68" fill="#605260" fill-rule="nonzero" opacity="0.6593"></path>
                            <path d="M130,169.5 C118.5,170.3 107.6,177.4 95.5,174 C106.9,181.5 119.1,174.3 130,169.5 Z" id="Path-34" fill="#B6A2B6" fill-rule="nonzero" opacity="0.7229"></path>
                            <circle id="Oval" stroke="#5D5259" fill="#5D5259" fill-rule="nonzero" cx="36.4" cy="161.5" r="1.8"></circle>
                            <path d="M32.5,137 C35.2,139.6 37.6,142.5 37,146.5 C30.1,146.1 18.2,140.8 12,143.5 C12,138.6 10.4,135.6 15.9,136.1 C21.5,136.6 26.9,136.3 32.5,137 Z" id="Path-28" fill="#605260" fill-rule="nonzero" opacity="0.5055"></path>
                            <path d="M41,218 C40.8,225.3 44.3,243.6 56,238 C62.1,235.1 56.8,230 61,226 C64.9,222.4 71.8,224.4 75.5,218.5 C68.4,219.7 61.9,220.6 55,222 C49.5,223.1 44,223.5 41,218 Z" id="Path-29" fill="#E4D6D5" fill-rule="nonzero" opacity="0.1937"></path>
                            <path d="M82,170 C89.7,183.3 109.3,182.5 122.5,182.5 C115.7,183.6 106.7,182.2 100.6,183.9 C92.7,186.1 89.3,189.7 81.8,182.3 C69.5,170 79.4,145.7 98,154 C89.3,156 82.1,159.7 82,170 Z" id="Path-37" stroke="#EAD5D3" fill="#EAD5D3" fill-rule="nonzero" opacity="0.2804"></path>
                            <path d="M71.5,150.5 C62.5,134.6 95.1,139.4 104.1,140.1 C116,141.1 134.6,145.4 143,154.5 C122,146.2 93.4,144.8 71.5,150.5 Z" id="Path-30" fill="#605260" fill-rule="nonzero" opacity="0.4048"></path>
                            <path d="M83,169 C79.2922662,155.581535 104.782125,151.595341 109.5,157 C110.12638,157.717563 108.652368,158.445144 108.5,159.5 C97.2,155 89.5,159.7 83,169 Z M108.5,159.5 L108.5,156 C115.2,158.4 123.2,164.7 129,169 C120.8,169.8 114.9,163.5 108.5,159.5 Z" id="Combined-Shape" stroke="#968D96" fill="#968D96" fill-rule="nonzero" opacity="0.8136"></path>
                            <path d="M103,159 C93.8,165.1 99.4,173.7 109,171.3 C119.1,168.7 109.8,158.9 103,159 Z" id="Path-35" stroke="#6F646B" fill="#796C74" fill-rule="nonzero" opacity="0.7388"></path>
                            <path d="M97.5,243 C85.9,248.1 32.5,275.3 40,242.5 C49.2,245.7 55.7,249.5 65.5,245.9 C74.5,242.5 87.7,244.4 97.5,243 Z" id="Path-39" fill="#FAD1E1" fill-rule="nonzero" opacity="0.7285"></path>
                            <path d="M74.5,253.5 C65,258.7 50.5,263.3 41,255.5 C37.5,268.6 49.9,267.3 58.1,268.7 C66.6,270.3 72.1,260.6 74.5,253.5 Z" id="Path-40" stroke="#EAD5D3" fill="#EAD5D3" fill-rule="nonzero" opacity="0.2442"></path>
                            <path d="M75.5,288.5 C64.9,297.4 47.7,304.8 40,287.3 C37.7,282 50.4,276.2 55.8,277.9 C61.6,279.6 71.5,283.8 75.5,288.5 Z" id="Path-41" fill="#F3E6E4" fill-rule="nonzero" opacity="0.2813"></path>
                            <path d="M11.5,216.5 C15.9,229.6 20.5,242.5 23.8,255.9 C27.2,269.7 36.4,279.8 38,294.5 C35.6,290.4 33.8,286.3 30,283.5 C22.2,293.7 13,303.4 0,298.5 C6.1,294.5 13.6,291.1 19.2,286.4 C27.6,279.4 29.7,275.2 24,265 C16.1,250.7 14.5,232.3 11.5,216.5 Z" id="Path-42" stroke="#9C8D8C" fill="#9C8D8C" fill-rule="nonzero"></path>
                            <path d="M99,242 C87.7,240.2 76.6,241 65.2,238.7 C59.6,237.6 55,239.3 49.5,238.5 C45,237.8 37.3,232.5 37,241.5 C47.6,242.5 54.4,248 65.7,245.8 C76.6,243.6 87.9,244.2 99,242 Z" id="Path-38" fill="#ECCDD8" fill-rule="nonzero" opacity="0.7589"></path>
                            <path d="M59.5,312.5 C62.3,294.9 76.6,288.6 92.3,282.8 C99.9,280 106.4,277.3 110.8,270.3 C115.3,263.2 111.2,255.9 115.1,248.5 C116.8,245.2 120,242.1 122.7,239.4 C125.3,236.8 130.1,240 133.1,238.5 C140.4,234.8 139.9,225.4 151.1,228.3 C158.8,230.2 160.6,223.1 168.2,223.6 C173.5,224 173.8,223.7 176.6,228 C180.9,234.6 176,233.6 183.6,235.5 C189.8,237 198.1,233.1 200.4,241.7 C202.7,250.2 199.7,258.5 197.6,267 C193.5,283.5 192.7,296.3 176.9,305.1 C163.4,312.6 148.1,316.3 134.4,323.6 C130,326 117,330.6 114.6,335.4 C110.5,343.7 108.5,349.3 107.9,358.6 C107.4,365.8 73.9,361.8 67,362 C47.7,362.3 64.8,361.6 45.5,362 C54.5,333.1 55.7,342.5 59.5,312.5 Z" id="Path-44" stroke="#FCFBFB" fill="#FEFAFA" fill-rule="nonzero"></path>
                            <path d="M82,169.5 C87.6,162.3 92.5,156.4 102.5,158 C111.1,159.3 115.1,167.1 123,169 C115.9,171.1 110.6,175.1 103,174.8 C95.8,174.4 88.9,171.7 82,169.5 Z" id="Path-31" stroke="#978F97" opacity="0.5977"></path>
                            <path d="M186,297 C182,297.7 178,298.3 174,299 C174.8,297.5 174.7,295.5 175.5,294 C168.3,295.5 155.3,300.6 156.5,288.5 C147.3,291.7 137.3,290.1 129.5,294.9 C126.9,296.5 119.7,290.4 117.1,288.9 C115.2,287.8 116.4,280.2 116.4,278 C103.2,288.1 91.7,297.6 76.9,305.3 C75.3,306.1 59.3,316.2 66.7,319.4 C75.5,323.2 83.3,324.8 92.8,326.5 C100.8,327.9 99.3,337.1 110.1,334.4 C119.5,332.1 125.8,328.2 134.2,323.2 C150.3,313.5 173.1,310.7 186,297 Z" id="Path-45" fill="#F8F0EF" fill-rule="nonzero" opacity="0.4107"></path>
                            <path d="M179,236 C179,246.8 175.8,263.8 181,273.5 C182.6,262.2 184,248.1 190,238 C186.3,237.3 182.7,236.7 179,236 Z" id="Path-46" stroke="#F3E5E4" fill="#F3E5E4" fill-rule="nonzero"></path>
                            <path d="M159,267 C158.2,259.4 159.2,250.9 158,243.5 C156.1,232 149.6,232.3 160.5,225 C162.3,238.9 160,253.1 159,267 Z" id="Path-47" stroke="#F3E5E4" fill="#F3E5E4" fill-rule="nonzero"></path>
                            <path d="M137,271.5 C136.3,261.6 130.4,239.2 139,232 C138.3,245.2 137.7,258.3 137,271.5 Z" id="Path-48" stroke="#F3E5E4" fill="#F3E5E4" fill-rule="nonzero"></path>
                            <path d="M178.5,212 C177.1,218.9 180.2,227.7 183,234 C177,237.3 177.2,229.4 174.8,225.3 C172.6,221.6 164,223.6 160.5,225 C158.3,225.9 156.3,228.5 154,229 C151.7,229.5 149.3,227.2 146.8,227.8 C143,228.8 141,228.9 138.5,231.8 C137,233.6 134.4,238.5 132,238.5 C117.1,238.5 114.5,249.2 113,262 C111.5,274.7 102.5,279.4 91,283 C92.1,278.9 98.6,278.7 101.9,276.4 C106.2,273.3 107.5,269.6 108.1,264.4 C109.2,256.4 111.1,237.4 121.4,234.8 C133.3,231.8 142,222.9 154.7,221.7 C159.4,221.2 165.8,219 169.5,216.1 C174.2,212.3 175,205.5 180,202.6 C179.5,205.7 179,208.8 178.5,212 Z" id="Path-15" stroke="#F3E5E4" fill="#F3E5E4" fill-rule="nonzero"></path>
                        </g>
                    </g>
                </g>
                <circle id="Oval" stroke="#5D5259" fill="#5D5259" fill-rule="nonzero" cx="105.4" cy="165.7" r="2"></circle>
            </g>
        </g>
    </g>
</svg>