<?xml version="1.0" encoding="UTF-8"?>
<svg width="73px" height="68px" viewBox="0 0 73 68" version="1.1" xmlns="http://www.w3.org/2000/svg" xmlns:xlink="http://www.w3.org/1999/xlink">
    <!-- Generator: Sketch 42 (36781) - http://www.bohemiancoding.com/sketch -->
    <title>travelling</title>
    <desc>Created with Sketch.</desc>
    <defs></defs>
    <g id="Resume" stroke="none" stroke-width="1" fill="none" fill-rule="evenodd" opacity="0.73">
        <g id="my-cv_for-GitHub" transform="translate(-413.000000, -3121.000000)">
            <g id="interests" transform="translate(147.000000, 3035.000000)">
                <g id="travelling" transform="translate(249.000000, 87.000000)">
                    <g transform="translate(18.000000, 0.000000)">
                        <polygon id="Shape" fill="#FFFFFF" points="23.4652861 65.4107143 70.5722892 65.4107143 70.5722892 5.30357143 23.4652861 5.30357143 11.8796687 0.353571429 0.294051205 5.30357143 0.352861446 65.4696429 11.8796687 60.4607143"></polygon>
                        <polygon id="Shape" fill="#E2E2E2" points="11.7620482 0.353571429 11.7620482 60.4607143 23.5240964 65.4696429 23.5240964 5.30357143"></polygon>
                        <path d="M0.58810241,19.4464286 C0.58810241,20.0357143 1.70549699,19.4464286 1.70549699,19.4464286 C1.70549699,19.4464286 2.52884036,18.9160714 3.23456325,18.0910714 C3.94028614,17.2660714 3.94028614,17.7964286 4.46957831,17.2660714 C4.99887048,16.7357143 4.99887048,16.4410714 5.70459337,15.9107143 C6.41031627,15.3214286 6.64555723,15.2625 7.76295181,14.7910714 C8.88034639,14.3196429 8.4686747,13.9660714 9.29201807,13.3767857 C10.1153614,12.7875 10.8210843,14.3785714 11.8796687,14.6732143 C12.9970633,14.9678571 12.703012,15.3803571 13.4675452,15.9107143 C14.2320783,16.4410714 15.4082831,16.3232143 16.2904367,16.5 C17.1137801,16.6178571 18.7604669,18.0321429 19.760241,18.15 C20.7600151,18.2678571 22.5243223,17.0303571 23.4652861,16.3821429 C24.40625,15.675 25.9353163,13.2 26.0529367,12.4928571 C26.0529367,12.4928571 27.9936747,9.19285714 28.2289157,8.6625 L29.9932229,5.3625 L25.0531627,5.3625 L24.5238705,8.6625 C24.2298193,9.19285714 23.4064759,11.8446429 23.4064759,11.8446429 C23.4064759,11.8446429 22.1714608,13.0821429 21.6421687,13.3767857 C21.1128765,13.6714286 20.1131024,14.3196429 18.8780873,14.6142857 C17.6430723,14.9089286 17.1137801,14.2017857 16.4080572,13.9071429 C15.7023343,13.6125 14.3496988,12.5517857 13.4675452,12.1392857 C12.5853916,11.7267857 11.8796687,10.6071429 11.8796687,10.0767857 C11.8796687,9.54642857 10.3506024,9.54642857 9.82131024,9.60535714 C9.29201807,9.66428571 8.29224398,10.3714286 7.76295181,10.7839286 C7.23365964,11.1964286 5.58697289,11.6089286 5.1753012,12.0214286 C4.76362952,12.4339286 3.11694277,14.2017857 2.70527108,15.3214286 C2.2935994,16.4410714 0.646912651,16.0285714 0.646912651,15.3214286 C0.58810241,14.5553571 0.58810241,19.4464286 0.58810241,19.4464286 L0.58810241,19.4464286 Z" id="Shape" fill="#C1C1C0"></path>
                        <path d="M1.70549699,38.775 C3.05813253,38.3035714 5.82221386,42.0160714 6.93960843,42.8410714 C8.05700301,43.6660714 11.8796687,47.9678571 11.8796687,47.9678571 C11.8796687,47.9678571 14.0556476,48.0857143 15.1730422,49.9125 C16.2904367,51.6803571 19.8778614,50.325 20.7012048,50.7375 C21.5245482,51.15 23.4652861,53.3303571 23.4652861,53.3303571 C23.4652861,53.3303571 27.582003,49.2053571 29.522741,47.9678571 C31.4634789,46.7303571 32.2868223,46.2 33.6394578,45.7875 C34.9920934,45.375 39.4028614,45.0803571 40.520256,45.7875 C41.6376506,46.4946429 46.0484187,47.025 46.871762,46.0232143 C47.6951054,45.0803571 52.6351657,46.9660714 54.6935241,47.7910714 C56.7518825,48.6160714 57.8692771,49.7357143 58.6926205,50.6785714 C59.5159639,51.6803571 68.7491717,56.5714286 68.7491717,56.5714286 C69.3960843,56.925 70.5722892,58.7517857 70.5722892,58.7517857 L70.5722892,48.7928571 C70.5722892,48.3803571 69.4548946,48.0857143 68.7491717,47.6732143 C68.7491717,47.6732143 65.5146084,44.3732143 63.8679217,43.2535714 C62.2212349,42.1339286 60.8685994,40.1892857 58.9278614,38.6571429 C56.9871235,37.0660714 53.69375,38.5982143 50.4003765,38.6571429 C47.107003,38.7160714 44.8722139,37.7732143 42.9902861,34.3553571 C41.0495482,30.9375 40.520256,30.5839286 40.520256,28.1089286 C40.520256,25.6339286 42.1669428,24.2196429 43.5783886,21.8625 C44.9310241,19.4464286 44.4017319,19.0339286 44.6957831,16.0875 C44.9898343,13.1410714 47.9891566,9.36964286 47.9891566,9.36964286 C48.6948795,8.42678571 52.5175452,5.24464286 52.5175452,5.24464286 L37.1680723,5.24464286 L36.9916416,8.54464286 C36.9916416,10.1946429 35.874247,17.2071429 35.0509036,18.7982143 C34.2275602,20.3892857 33.1101657,19.7410714 33.4042169,22.8642857 C33.6982681,25.9285714 34.4628012,26.6357143 35.1685241,29.5821429 C35.874247,32.5285714 36.4035392,34.7678571 36.9916416,35.8875 C37.579744,37.0071429 36.6975904,39.5410714 36.9916416,40.0714286 C37.2856928,40.6017857 35.7566265,41.9571429 35.2861446,42.7821429 C34.8156627,43.6071429 29.4051205,44.1375 29.5815512,44.8446429 C29.7579819,45.5517857 27.2291416,47.6142857 26.6998494,47.7321429 C26.1705572,47.85 23.5240964,49.5 23.5240964,49.5 C23.5240964,49.5 22.2890813,48.7928571 21.5833584,48.5571429 C20.8776355,48.2625 20.6423946,48.2625 19.9366717,48.675 C19.2309488,49.0875 19.4073795,49.2053571 18.2899849,48.7928571 C17.1725904,48.3803571 17.1725904,48.7928571 16.349247,47.6732143 C15.5259036,46.5535714 14.8201807,46.7892857 14.1732681,46.3767857 C13.4675452,46.0232143 13.3499247,45.4339286 12.6442018,45.4339286 C11.9384789,45.4339286 9.88012048,42.6642857 9.35082831,42.1339286 C8.82153614,41.6035714 5.76340361,38.2446429 5.05768072,38.0089286 C4.35195783,37.7142857 3.70504518,37.5964286 3.11694277,37.3017857 C2.5876506,37.0071429 0.940963855,36.5946429 0.940963855,36.5946429 C0.940963855,36.5946429 0.294051205,39.2464286 1.70549699,38.775 L1.70549699,38.775 Z" id="Shape" fill="#C1C1C0"></path>
                        <polygon id="Shape" stroke="#3D3D3D" stroke-width="2" points="23.4652861 65.4107143 70.5722892 65.4107143 70.5722892 5.30357143 23.4652861 5.30357143 11.8796687 0.353571429 0.294051205 5.30357143 0.352861446 65.4696429 11.8796687 60.4607143"></polygon>
                        <path d="M11.7620482,4.125 L11.7620482,58.9285714" id="Shape" stroke="#3D3D3D" stroke-width="2" stroke-dasharray="5"></path>
                        <path d="M23.5240964,8.83928571 L23.5240964,63.0535714" id="Shape" stroke="#3D3D3D" stroke-width="2" stroke-dasharray="5"></path>
                        <path d="M50.0475151,7.36607143 C50.0475151,7.36607143 44.9310241,11.7857143 44.6369729,16.1464286 C44.4605422,19.0928571 44.9310241,19.5053571 43.5195783,21.9214286 C42.1669428,24.3375 40.4614458,25.6928571 40.4614458,28.1678571 C40.4614458,30.6428571 40.990738,30.9964286 42.9314759,34.4142857 C44.8722139,37.8321429 47.0481928,38.8339286 50.3415663,38.7160714 C53.6349398,38.5982143 56.9283133,37.125 58.8690512,38.7160714 C60.8097892,40.3071429 62.1624247,42.1928571 63.8091114,43.3125 C65.4557982,44.4321429 68.7491717,47.7321429 68.7491717,47.7321429" id="Shape" stroke="#3D3D3D" stroke-width="2"></path>
                        <path d="M68.8667922,56.6303571 C68.8667922,56.6303571 59.5159639,51.6803571 58.6926205,50.7375 C57.8692771,49.7357143 56.7518825,48.675 54.6935241,47.85 C52.6351657,47.025 47.6951054,45.0803571 46.871762,46.0821429 C46.0484187,47.025 41.6376506,46.4946429 40.520256,45.8464286 C39.4028614,45.1392857 34.9920934,45.4339286 33.6394578,45.8464286 C32.2868223,46.2589286 31.4634789,46.7892857 29.522741,48.0267857 C27.582003,49.2642857 23.4652861,53.3892857 23.4652861,53.3892857 C23.4652861,53.3892857 21.5245482,51.2089286 20.7012048,50.7964286 C19.8778614,50.3839286 16.2904367,51.7392857 15.1730422,49.9714286 C14.0556476,48.2035714 11.8796687,48.0267857 11.8796687,48.0267857 C11.8796687,48.0267857 7.99819277,43.725 6.93960843,42.9 C5.82221386,42.075 3.05813253,38.3625 1.70549699,38.8339286" id="Shape" stroke="#3D3D3D" stroke-width="2"></path>
                        <path d="M36.9916416,7.36607143 C36.9916416,9.01607143 35.8154367,17.2071429 34.9920934,18.8571429 C34.16875,20.4482143 33.0513554,19.8 33.3454066,22.9232143 C33.6394578,25.9875 34.403991,26.6946429 35.1097139,29.6410714 C35.8154367,32.5875 36.3447289,34.8267857 36.9328313,35.9464286 C37.5209337,37.0660714 36.6387801,39.6 36.9328313,40.1303571 C37.2268825,40.6607143 35.6978163,42.0160714 35.2273343,42.8410714 C34.7568524,43.6660714 29.3463102,44.1964286 29.522741,44.9035714 C29.6991717,45.6107143 27.1703313,47.6732143 26.6410392,47.7910714 C26.111747,47.9089286 23.4652861,49.5589286 23.4652861,49.5589286 C23.4652861,49.5589286 22.2302711,48.8517857 21.5245482,48.6160714 C20.8188253,48.3214286 20.5835843,48.3214286 19.8778614,48.7339286 C19.1721386,49.1464286 19.3485693,49.2642857 18.2311747,48.8517857 C17.1137801,48.4392857 17.1137801,48.8517857 16.2904367,47.7321429 C15.4670934,46.6125 14.7613705,46.8482143 14.1144578,46.4357143 C13.4087349,46.0821429 13.2911145,45.4928571 12.5853916,45.4928571 C11.8796687,45.4928571 9.82131024,42.7232143 9.29201807,42.1928571 C8.7627259,41.6625 5.70459337,38.3035714 4.99887048,38.0678571 C4.29314759,37.7732143 3.64623494,37.6553571 3.05813253,37.3607143" id="Shape" stroke="#3D3D3D" stroke-width="2"></path>
                        <path d="M2.52884036,15.2035714 C2.94051205,14.0839286 4.70481928,12.3160714 5.11649096,11.9035714 C5.52816265,11.4910714 7.1748494,11.0785714 7.70414157,10.6660714 C8.23343373,10.2535714 9.23320783,9.54642857 9.7625,9.4875 C10.2917922,9.42857143 11.8208584,9.42857143 11.8208584,9.95892857 C11.8208584,10.4892857 12.5853916,11.6089286 13.4087349,12.0214286 C14.2908886,12.4339286 15.6435241,13.5535714 16.349247,13.7892857 C17.0549699,14.025 17.584262,14.7321429 18.8192771,14.4964286 C20.0542922,14.2017857 20.995256,13.5535714 21.5833584,13.2589286 C22.1126506,12.9642857 23.3476657,11.7267857 23.3476657,11.7267857 C23.3476657,11.7267857 24.3474398,7.89642857 24.641491,7.30714286" id="Shape" stroke="#3D3D3D" stroke-width="2"></path>
                        <path d="M28.9346386,7.36607143 C28.6405873,7.89642857 26.0529367,12.4339286 26.0529367,12.4339286 C25.9353163,13.1410714 24.40625,15.6160714 23.4652861,16.3232143 C22.5243223,17.0303571 20.7012048,18.2678571 19.760241,18.0910714 C18.8192771,17.9142857 17.1725904,16.5589286 16.2904367,16.4410714 C15.4670934,16.3232143 14.2908886,16.4410714 13.4675452,15.8517857 C12.703012,15.3214286 12.938253,14.9089286 11.8796687,14.6142857 C10.8210843,14.3196429 10.1153614,12.6696429 9.29201807,13.3178571 C8.4686747,13.9071429 8.88034639,14.3196429 7.76295181,14.7321429 C6.64555723,15.1446429 6.41031627,15.2625 5.70459337,15.8517857 C4.99887048,16.4410714 4.99887048,16.6767857 4.46957831,17.2660714 C3.94028614,17.7964286 3.94028614,17.2660714 3.23456325,18.0910714 C2.52884036,18.9160714 1.70549699,19.4464286 1.70549699,19.4464286" id="Shape" stroke="#3D3D3D" stroke-width="2"></path>
                        <path d="M64.7500753,31.2321429 C64.7500753,32.1160714 63.9855422,32.8232143 63.1033886,32.8232143 C62.2212349,32.8232143 61.4567018,32.1160714 61.4567018,31.2321429 C61.4567018,30.3482143 62.2212349,27.4017857 63.1033886,27.4017857 C63.9855422,27.4017857 64.7500753,30.3482143 64.7500753,31.2321429 L64.7500753,31.2321429 Z" id="Shape" fill="#53AF80"></path>
                        <path d="M64.7500753,31.2321429 C64.7500753,32.1160714 63.9855422,32.8232143 63.1033886,32.8232143 C62.2212349,32.8232143 61.4567018,32.1160714 61.4567018,31.2321429 C61.4567018,30.3482143 62.2212349,27.4017857 63.1033886,27.4017857 C63.9855422,27.4017857 64.7500753,30.3482143 64.7500753,31.2321429 L64.7500753,31.2321429 Z" id="Shape" stroke="#3D3D3D" stroke-width="2"></path>
                        <path d="M62.9269578,31.2321429 L62.9269578,34.1785714" id="Shape" stroke="#3D3D3D" stroke-width="2"></path>
                        <path d="M59.2219127,30.7017857 C59.2219127,31.5857143 58.4573795,32.2928571 57.5752259,32.2928571 C56.6930723,32.2928571 55.9285392,31.5857143 55.9285392,30.7017857 C55.9285392,29.8178571 56.6930723,26.8714286 57.5752259,26.8714286 C58.4573795,26.8714286 59.2219127,29.8178571 59.2219127,30.7017857 L59.2219127,30.7017857 Z" id="Shape" fill="#53AF80"></path>
                        <path d="M59.2219127,30.7017857 C59.2219127,31.5857143 58.4573795,32.2928571 57.5752259,32.2928571 C56.6930723,32.2928571 55.9285392,31.5857143 55.9285392,30.7017857 C55.9285392,29.8178571 56.6930723,26.8714286 57.5752259,26.8714286 C58.4573795,26.8714286 59.2219127,29.8178571 59.2219127,30.7017857 L59.2219127,30.7017857 Z" id="Shape" stroke="#3D3D3D" stroke-width="2"></path>
                        <path d="M57.6340361,30.6428571 L57.6340361,33.5892857" id="Shape" stroke="#3D3D3D" stroke-width="2"></path>
                        <path d="M62.5740964,23.5125 C62.5740964,24.3964286 61.8095633,25.1035714 60.9274096,25.1035714 C59.9864458,25.1035714 59.2807229,24.3964286 59.2807229,23.5125 C59.2807229,22.6285714 60.045256,19.6821429 60.9274096,19.6821429 C61.8095633,19.6821429 62.5740964,22.6285714 62.5740964,23.5125 L62.5740964,23.5125 Z" id="Shape" fill="#53AF80"></path>
                        <path d="M62.5740964,23.5125 C62.5740964,24.3964286 61.8095633,25.1035714 60.9274096,25.1035714 C59.9864458,25.1035714 59.2807229,24.3964286 59.2807229,23.5125 C59.2807229,22.6285714 60.045256,19.6821429 60.9274096,19.6821429 C61.8095633,19.6821429 62.5740964,22.6285714 62.5740964,23.5125 L62.5740964,23.5125 Z" id="Shape" stroke="#3D3D3D" stroke-width="2"></path>
                        <path d="M61.1626506,23.5714286 L61.1626506,26.5178571" id="Shape" stroke="#3D3D3D" stroke-width="2"></path>
                        <path d="M53.7525602,59.4 C53.7525602,60.2839286 52.9880271,60.9910714 52.1058735,60.9910714 C51.2237199,60.9910714 50.4591867,60.2839286 50.4591867,59.4 C50.4591867,58.5160714 51.2237199,55.5696429 52.1058735,55.5696429 C52.9880271,55.5696429 53.7525602,58.5160714 53.7525602,59.4 L53.7525602,59.4 Z" id="Shape" fill="#53AF80"></path>
                        <path d="M53.7525602,59.4 C53.7525602,60.2839286 52.9880271,60.9910714 52.1058735,60.9910714 C51.2237199,60.9910714 50.4591867,60.2839286 50.4591867,59.4 C50.4591867,58.5160714 51.2237199,55.5696429 52.1058735,55.5696429 C52.9880271,55.5696429 53.7525602,58.5160714 53.7525602,59.4 L53.7525602,59.4 Z" id="Shape" stroke="#3D3D3D" stroke-width="2"></path>
                        <path d="M52.3411145,59.5178571 L52.3411145,61.875" id="Shape" stroke="#3D3D3D" stroke-width="2"></path>
                        <path d="M43.2843373,56.0410714 C43.2843373,56.925 42.5198042,57.6321429 41.6376506,57.6321429 C40.6966867,57.6321429 39.9909639,56.925 39.9909639,56.0410714 C39.9909639,55.1571429 40.755497,52.2107143 41.6376506,52.2107143 C42.5198042,52.2696429 43.2843373,55.1571429 43.2843373,56.0410714 L43.2843373,56.0410714 Z" id="Shape" fill="#53AF80"></path>
                        <path d="M43.2843373,56.0410714 C43.2843373,56.925 42.5198042,57.6321429 41.6376506,57.6321429 C40.6966867,57.6321429 39.9909639,56.925 39.9909639,56.0410714 C39.9909639,55.1571429 40.755497,52.2107143 41.6376506,52.2107143 C42.5198042,52.2696429 43.2843373,55.1571429 43.2843373,56.0410714 L43.2843373,56.0410714 Z" id="Shape" stroke="#3D3D3D" stroke-width="2"></path>
                        <path d="M41.7552711,55.9821429 L41.7552711,58.9285714" id="Shape" stroke="#3D3D3D" stroke-width="2"></path>
                        <path d="M33.3454066,37.3017857 C33.3454066,38.1857143 32.5808735,38.8928571 31.6987199,38.8928571 C30.8165663,38.8928571 30.0520331,38.1857143 30.0520331,37.3017857 C30.0520331,36.4178571 30.8165663,33.4714286 31.6987199,33.4714286 C32.5808735,33.4714286 33.3454066,36.4178571 33.3454066,37.3017857 L33.3454066,37.3017857 Z" id="Shape" fill="#53AF80"></path>
                        <path d="M33.3454066,37.3017857 C33.3454066,38.1857143 32.5808735,38.8928571 31.6987199,38.8928571 C30.8165663,38.8928571 30.0520331,38.1857143 30.0520331,37.3017857 C30.0520331,36.4178571 30.8165663,33.4714286 31.6987199,33.4714286 C32.5808735,33.4714286 33.3454066,36.4178571 33.3454066,37.3017857 L33.3454066,37.3017857 Z" id="Shape" stroke="#3D3D3D" stroke-width="2"></path>
                        <path d="M31.7575301,37.125 L31.7575301,40.0714286" id="Shape" stroke="#3D3D3D" stroke-width="2"></path>
                        <path d="M33.3454066,14.1428571 C33.3454066,15.0267857 32.5808735,15.7339286 31.6987199,15.7339286 C30.8165663,15.7339286 30.0520331,15.0267857 30.0520331,14.1428571 C30.0520331,13.2589286 30.8165663,10.3125 31.6987199,10.3125 C32.5808735,10.3125 33.3454066,13.2589286 33.3454066,14.1428571 L33.3454066,14.1428571 Z" id="Shape" fill="#53AF80"></path>
                        <path d="M33.3454066,14.1428571 C33.3454066,15.0267857 32.5808735,15.7339286 31.6987199,15.7339286 C30.8165663,15.7339286 30.0520331,15.0267857 30.0520331,14.1428571 C30.0520331,13.2589286 30.8165663,10.3125 31.6987199,10.3125 C32.5808735,10.3125 33.3454066,13.2589286 33.3454066,14.1428571 L33.3454066,14.1428571 Z" id="Shape" stroke="#3D3D3D" stroke-width="2"></path>
                        <path d="M31.7575301,14.1428571 L31.7575301,17.0892857" id="Shape" stroke="#3D3D3D" stroke-width="2"></path>
                        <path d="M18.054744,42.8410714 C18.054744,43.725 17.5254518,44.4321429 16.8197289,44.4321429 C16.114006,44.4321429 15.5847139,43.725 15.5847139,42.8410714 C15.5847139,41.9571429 16.114006,39.0107143 16.8197289,39.0107143 C17.5254518,39.0107143 18.054744,41.9571429 18.054744,42.8410714 L18.054744,42.8410714 Z" id="Shape" fill="#53AF80"></path>
                        <path d="M18.054744,42.8410714 C18.054744,43.725 17.5254518,44.4321429 16.8197289,44.4321429 C16.114006,44.4321429 15.5847139,43.725 15.5847139,42.8410714 C15.5847139,41.9571429 16.114006,39.0107143 16.8197289,39.0107143 C17.5254518,39.0107143 18.054744,41.9571429 18.054744,42.8410714 L18.054744,42.8410714 Z" id="Shape" stroke="#3D3D3D" stroke-width="2"></path>
                        <path d="M17.0549699,43.0178571 L17.0549699,45.375" id="Shape" stroke="#3D3D3D" stroke-width="2"></path>
                        <path d="M5.93983434,47.7910714 C5.93983434,48.675 5.41054217,49.3821429 4.70481928,49.3821429 C3.99909639,49.3821429 3.46980422,48.675 3.46980422,47.7910714 C3.46980422,46.9071429 3.99909639,43.9607143 4.70481928,43.9607143 C5.41054217,43.9607143 5.93983434,46.9071429 5.93983434,47.7910714 L5.93983434,47.7910714 Z" id="Shape" fill="#53AF80"></path>
                        <path d="M5.93983434,47.7910714 C5.93983434,48.675 5.41054217,49.3821429 4.70481928,49.3821429 C3.99909639,49.3821429 3.46980422,48.675 3.46980422,47.7910714 C3.46980422,46.9071429 3.99909639,43.9607143 4.70481928,43.9607143 C5.41054217,43.9607143 5.93983434,46.9071429 5.93983434,47.7910714 L5.93983434,47.7910714 Z" id="Shape" stroke="#3D3D3D" stroke-width="2"></path>
                        <path d="M4.70481928,47.7321429 L4.70481928,50.6785714" id="Shape" stroke="#3D3D3D" stroke-width="2"></path>
                        <path d="M54.6935241,8.83928571 L68.2198795,8.83928571" id="Shape" stroke="#3D3D3D" stroke-width="2"></path>
                        <path d="M55.2816265,8.83928571 L55.2816265,10.0178571" id="Shape" stroke="#3D3D3D" stroke-width="2"></path>
                        <path d="M57.0459337,8.83928571 L57.0459337,10.0178571" id="Shape" stroke="#3D3D3D" stroke-width="2"></path>
                        <path d="M58.810241,8.83928571 L58.810241,10.0178571" id="Shape" stroke="#3D3D3D" stroke-width="2"></path>
                        <path d="M60.5745482,8.83928571 L60.5745482,10.0178571" id="Shape" stroke="#3D3D3D" stroke-width="2"></path>
                        <path d="M61.750753,8.83928571 L61.750753,10.0178571" id="Shape" stroke="#3D3D3D" stroke-width="2"></path>
                        <path d="M63.5150602,8.83928571 L63.5150602,10.0178571" id="Shape" stroke="#3D3D3D" stroke-width="2"></path>
                        <path d="M65.2793675,8.83928571 L65.2793675,10.0178571" id="Shape" stroke="#3D3D3D" stroke-width="2"></path>
                        <path d="M67.0436747,8.83928571 L67.0436747,10.0178571" id="Shape" stroke="#3D3D3D" stroke-width="2"></path>
                        <ellipse id="Oval" stroke="#3D3D3D" stroke-width="2" cx="65.8674699" cy="13.5535714" rx="1.82311747" ry="1.82678571"></ellipse>
                        <path d="M65.8674699,11.7857143 L65.8674699,15.3214286" id="Shape" stroke="#3D3D3D" stroke-width="2"></path>
                        <path d="M64.1031627,13.5535714 L67.6317771,13.5535714" id="Shape" stroke="#3D3D3D" stroke-width="2"></path>
                    </g>
                </g>
            </g>
        </g>
    </g>
</svg>