<?xml version="1.0" encoding="UTF-8"?>
<svg width="40px" height="41px" viewBox="0 0 40 41" version="1.1" xmlns="http://www.w3.org/2000/svg" xmlns:xlink="http://www.w3.org/1999/xlink">
    <!-- Generator: Sketch 42 (36781) - http://www.bohemiancoding.com/sketch -->
    <title>Viber</title>
    <desc>Created with Sketch.</desc>
    <defs></defs>
    <g id="Resume" stroke="none" stroke-width="1" fill="none" fill-rule="evenodd">
        <g id="my-cv" transform="translate(-169.000000, -3640.000000)" fill="#F08475">
            <g id="get-in-touch" transform="translate(0.000000, 3372.000000)">
                <g id="left" transform="translate(169.000000, 178.000000)">
                    <path d="M23.2079162,130.330298 C25.4320209,130.052718 27.229359,129.516925 29.2013505,128.555048 C31.1408922,127.606036 32.3822161,126.708732 34.0244427,125.075507 C35.5632136,123.53262 36.4166628,122.364121 37.3217679,120.550146 C38.5825497,118.019533 39.3002134,115.01127 39.422983,111.699578 C39.4683168,110.569899 39.4359869,110.31806 39.1773118,109.995334 C38.6859814,109.369059 37.606199,109.472466 37.2377581,110.17606 C37.1213105,110.408483 37.0889806,110.608517 37.0501968,111.51236 C36.985525,112.90031 36.8886433,113.797613 36.6946399,114.86927 C35.9317504,119.071785 33.914533,122.428695 30.6947636,124.836652 C28.0116704,126.850745 25.2380055,127.832038 21.6045694,128.045045 C20.3761295,128.116051 20.1627882,128.161196 19.8847991,128.374263 C19.3674608,128.780979 19.3416928,129.736364 19.8394652,130.181794 C20.1433542,130.459434 20.3566835,130.498147 21.4105781,130.465866 C21.9601383,130.44651 22.7682536,130.381948 23.2079162,130.330298 L23.2079162,130.330298 Z M8.42816465,129.633077 C8.6544979,129.555639 9.00361276,129.374913 9.20405809,129.245777 C10.4323901,128.432345 13.8526049,124.061992 14.9711592,121.879966 C15.6111591,120.634076 15.8244884,119.710924 15.624163,119.026628 C15.4171557,118.290693 15.0746028,117.903334 13.5422739,116.670308 C12.9280539,116.173289 12.3526058,115.663286 12.2621661,115.527706 C12.0293908,115.191996 11.8418295,114.533548 11.8418295,114.068749 C11.8483914,112.990661 12.5466091,111.034626 13.4647181,109.530464 C14.1758198,108.362013 15.4494856,106.864403 16.7102675,105.715248 C18.1908206,104.359519 19.4968163,103.436487 20.9709275,102.706925 C22.8652553,101.764465 24.0225935,101.525609 24.8695887,101.919342 C25.082918,102.016196 25.3091433,102.145332 25.380365,102.203354 C25.4449168,102.261496 25.9428092,102.868354 26.4859154,103.539655 C27.533248,104.856658 27.7724652,105.069665 28.4901288,105.314964 C29.4017958,105.624826 30.3327888,105.540955 31.2702237,105.063233 C31.9814454,104.69523 33.5331123,103.733364 34.535219,103.036191 C35.8540987,102.113039 38.6729895,99.8148497 39.0545542,99.356436 C39.726884,98.5301389 39.8433316,97.4715266 39.3906651,96.3029555 C38.9122187,95.0700499 37.0502208,92.758888 35.750667,91.7711622 C34.5740029,90.8802912 33.7400116,90.5382566 32.6408912,90.4865591 C31.7357862,90.4414017 31.3607834,90.5188401 30.2034452,90.9965626 C21.126135,94.7343398 13.8784808,100.311869 8.12426366,107.974701 C5.1179435,111.977134 2.82916703,116.128048 1.26449618,120.43391 C0.352949147,122.945094 0.307723285,124.036107 1.05760885,125.320758 C1.38094377,125.862995 2.75805326,127.205787 3.76015998,127.954598 C5.42827449,129.194104 6.19760598,129.65247 6.81182596,129.781546 C7.23205459,129.871944 7.9626022,129.800938 8.42816465,129.633077 L8.42816465,129.633077 Z M23.6540327,125.650012 C27.5785818,125.075507 30.6172319,123.254992 32.6085613,120.298366 C33.7271156,118.632836 34.4253334,116.6768 34.6645626,114.578765 C34.7485603,113.810538 34.7485603,112.409663 34.6581206,112.17724 C34.5740029,111.957801 34.3024558,111.660805 34.0696686,111.538209 C33.8175554,111.409073 33.2810111,111.421937 32.9835641,111.576922 C32.4856717,111.828654 32.3370142,112.228938 32.3370142,113.313459 C32.3370142,114.985421 31.9037937,116.747807 31.1539081,118.1164 C30.3004589,119.678643 29.059147,120.969739 27.5462639,121.867102 C26.2467102,122.641761 24.3264945,123.216279 22.5743822,123.358279 C21.9407163,123.409976 21.5916015,123.539064 21.3523843,123.816645 C20.9839434,124.236285 20.9450516,124.804371 21.2553826,125.275589 C21.5915895,125.798505 22.1088078,125.882435 23.6540327,125.650012 L23.6540327,125.650012 Z M25.0311422,120.776089 C26.304808,120.50494 27.2811468,120.020786 28.1151381,119.239646 C29.1883586,118.226191 29.7767986,116.999598 30.0353418,115.237213 C30.2098992,114.088118 30.1387854,113.636256 29.7314528,113.261821 C29.35002,112.913234 28.6453603,112.90031 28.2185817,113.22954 C27.9082507,113.461963 27.8112491,113.707262 27.7401353,114.372143 C27.6561376,115.256581 27.5009181,115.876304 27.2359209,116.450882 C26.6669148,117.670971 25.6648081,118.30363 23.9709256,118.510204 C23.1755863,118.607059 22.9363691,118.697422 22.6778139,119.000791 C22.2058095,119.562444 22.3868089,120.472671 23.0398127,120.808382 C23.2855919,120.931025 23.3890356,120.94395 23.9320338,120.911669 C24.2682527,120.8923 24.766145,120.834218 25.0311422,120.776089 L25.0311422,120.776089 Z" id="Viber" transform="translate(20.097981, 110.475430) scale(1, -1) translate(-20.097981, -110.475430) "></path>
                </g>
            </g>
        </g>
    </g>
</svg>