<?xml version="1.0" encoding="UTF-8"?>
<svg width="66px" height="67px" viewBox="0 0 66 67" version="1.1" xmlns="http://www.w3.org/2000/svg" xmlns:xlink="http://www.w3.org/1999/xlink">
    <!-- Generator: Sketch 42 (36781) - http://www.bohemiancoding.com/sketch -->
    <title>writing</title>
    <desc>Created with Sketch.</desc>
    <defs></defs>
    <g id="Resume" stroke="none" stroke-width="1" fill="none" fill-rule="evenodd" opacity="0.73">
        <g id="my-cv_for-GitHub" transform="translate(-682.000000, -3132.000000)">
            <g id="interests" transform="translate(147.000000, 3035.000000)">
                <g id="writing" transform="translate(528.000000, 98.000000)">
                    <g transform="translate(8.000000, 0.000000)">
                        <polyline id="Shape" fill="#FFFFFF" points="13.4511583 55.8018868 13.4511583 0 48.3018868 0 48.3018868 55.8018868"></polyline>
                        <rect id="Rectangle-path" stroke="#3D3D3D" stroke-width="2" x="13.4511583" y="0" width="34.8507284" height="55.8018868"></rect>
                        <rect id="Rectangle-path" x="18.3424887" y="0" width="40.353475" height="55.8018868"></rect>
                        <rect id="Rectangle-path" stroke="#3D3D3D" stroke-width="2" x="18.3424887" y="0" width="40.353475" height="55.8018868"></rect>
                        <path d="M61.0193456,55.8018868 L59.30738,55.8018868 C58.8793886,55.8018868 58.6959637,55.8632075 58.6959637,55.3726415 L58.6959637,0.674528302 C58.6959637,0.245283019 58.818247,0 59.30738,0 L61.0193456,0 C62.3644614,0 63.587294,0.981132075 63.587294,2.33018868 L63.587294,53.7169811 C63.587294,55.1273585 62.3644614,55.8018868 61.0193456,55.8018868 L61.0193456,55.8018868 Z" id="Shape"></path>
                        <path d="M61.0193456,55.8018868 L59.30738,55.8018868 C58.8793886,55.8018868 58.6959637,55.8632075 58.6959637,55.3726415 L58.6959637,0.674528302 C58.6959637,0.245283019 58.818247,0 59.30738,0 L61.0193456,0 C62.3644614,0 63.587294,0.981132075 63.587294,2.33018868 L63.587294,53.7169811 C63.587294,55.1273585 62.3644614,55.8018868 61.0193456,55.8018868 L61.0193456,55.8018868 Z" id="Shape" stroke="#3D3D3D" stroke-width="2"></path>
                        <path d="M15.8968235,0 L15.8968235,55.8018868" id="Shape" stroke="#3D3D3D" stroke-width="2"></path>
                        <rect id="Rectangle-path" fill="#3D3D3D" x="26.9023167" y="0" width="2.44566515" height="56.4150943"></rect>
                        <path d="M51.4812515,56.0471698 C51.4812515,56.0471698 51.1755433,59.9716981 53.4377836,61.9339623 C55.7000239,63.8962264 58.4513972,64.754717 58.4513972,64.754717" id="Shape" stroke="#3D3D3D" stroke-width="2"></path>
                        <rect id="Rectangle-path" fill="#FFFFFF" x="36.073561" y="9.19811321" width="16.5082398" height="12.2641509"></rect>
                        <rect id="Rectangle-path" stroke="#3D3D3D" stroke-width="2" x="36.073561" y="9.19811321" width="17.1196561" height="11.6509434"></rect>
                        <path d="M39.7420588,12.2641509 L49.5247194,12.2641509" id="Shape" stroke="#3D3D3D" stroke-width="2"></path>
                        <path d="M39.7420588,14.7169811 L49.5247194,14.7169811" id="Shape" stroke="#3D3D3D" stroke-width="2"></path>
                        <path d="M42.7991402,17.1698113 L46.4676379,17.1698113" id="Shape" stroke="#3D3D3D" stroke-width="2"></path>
                        <rect id="Rectangle-path" x="0.611416289" y="9.19811321" width="4.89133031" height="41.0849057"></rect>
                        <rect id="Rectangle-path" x="3.05708144" y="9.19811321" width="2.44566515" height="41.0849057"></rect>
                        <path d="M4.89133031,9.19811321 L1.52854072,9.19811321 C1.03940769,9.19811321 0.55027466,9.44339623 0.55027466,9.93396226 L0.55027466,50.2830189 L5.44160497,50.2830189 L5.44160497,9.93396226 C5.5027466,9.44339623 5.38046334,9.19811321 4.89133031,9.19811321 L4.89133031,9.19811321 Z" id="Shape" stroke="#3D3D3D" stroke-width="2"></path>
                        <path d="M4.09648913,54.5754717 L2.44566515,54.5754717 C1.52854072,54.5754717 0.672557917,53.6556604 0.672557917,52.7358491 L0.672557917,50.2830189 L5.56388823,50.2830189 L5.56388823,52.7358491 C5.5027466,53.6556604 5.01361357,54.5754717 4.09648913,54.5754717 L4.09648913,54.5754717 Z" id="Shape" fill="#FFFFFF"></path>
                        <path d="M3.66849773,54.5754717 L2.44566515,54.5754717 C1.46739909,54.5754717 0.611416289,53.7783019 0.611416289,52.7358491 L0.611416289,50.2830189 L5.5027466,50.2830189 L5.5027466,52.7358491 C5.5027466,53.7783019 4.64676379,54.5754717 3.66849773,54.5754717 L3.66849773,54.5754717 Z" id="Shape" stroke="#3D3D3D" stroke-width="2"></path>
                        <path d="M0.611416289,47.8301887 L5.5027466,47.8301887" id="Shape" stroke="#3D3D3D" stroke-width="2"></path>
                        <path d="M0.611416289,45.990566 L5.5027466,45.990566" id="Shape" stroke="#3D3D3D" stroke-width="2"></path>
                        <polyline id="Shape" stroke="#3D3D3D" stroke-width="2" points="5.56388823 9.93396226 3.05708144 2.39150943 0.55027466 9.93396226"></polyline>
                    </g>
                </g>
            </g>
        </g>
    </g>
</svg>