<?xml version="1.0" encoding="UTF-8"?>
<svg width="89px" height="83px" viewBox="0 0 89 83" version="1.1" xmlns="http://www.w3.org/2000/svg" xmlns:xlink="http://www.w3.org/1999/xlink">
    <!-- Generator: Sketch 42 (36781) - http://www.bohemiancoding.com/sketch -->
    <title>yoga</title>
    <desc>Created with Sketch.</desc>
    <defs>
        <path d="M44.4460298,82.6832061 C68.9928943,82.6832061 88.8920596,68.8456061 88.8920596,44.351145 C88.8920596,19.856684 68.9928943,0 44.4460298,0 C19.8991654,0 0,19.856684 0,44.351145 C0,68.8456061 19.8991654,82.6832061 44.4460298,82.6832061 Z" id="path-1"></path>
    </defs>
    <g id="Resume" stroke="none" stroke-width="1" fill="none" fill-rule="evenodd" opacity="0.73">
        <g id="my-cv_for-GitHub" transform="translate(-797.000000, -3116.000000)">
            <g id="interests" transform="translate(147.000000, 3035.000000)">
                <g id="yoga" transform="translate(650.000000, 81.000000)">
                    <g>
                        <mask id="mask-2" fill="white">
                            <use xlink:href="#path-1"></use>
                        </mask>
                        <use id="Mask" fill="#FFFFFF" xlink:href="#path-1"></use>
                        <polygon id="Path-148" fill="#E2E2E2" mask="url(#mask-2)" points="18.9034521 68.7581345 58.7322537 105.175573 83.8125134 62.7251908 64.1292716 51.3206107 55.8714374 46.5714742 50.2490146 60.6224714"></polygon>
                        <g id="glarus" mask="url(#mask-2)">
                            <g transform="translate(16.356139, 11.353893)">
                                <ellipse id="Oval-5" stroke="none" fill="#4A4A4A" transform="translate(30.223300, 57.124275) rotate(-4.000000) translate(-30.223300, -57.124275) " cx="30.2233003" cy="57.1242748" rx="29.5121638" ry="5.3221374"></ellipse>
                                <path d="M31.4237737,41.6856774 C26.4950142,41.9893011 24.8676351,43.733079 23.3669578,45.2369227 C21.8596986,46.7446097 22.6445923,47.7081897 22.1004871,47.8866304 C21.5563819,48.0694636 9.64914401,51.384069 10.0045676,51.0804452 C10.370961,50.7773705 11.0297013,48.1902542 11.2090585,47.0482335 C11.3911583,45.9012713 11.574355,37.046218 11.5118268,35.9667888 C11.44875,34.8785748 11.7520668,31.4475711 12.296172,31.0862972 C12.8347922,30.7250233 13.5862279,30.5125416 13.5571577,29.7037932 C13.5571577,29.009796 13.0761292,28.6144811 12.7152207,26.7499126 C12.5994887,26.1476065 12.5605457,25.1164935 12.5759035,23.9843556 C12.6526925,25.9120647 12.9560092,27.6509011 12.9560092,27.6509011 C14.1588547,29.8816849 15.2421287,30.6673733 17.5902279,31.264738 C19.9344876,31.8714365 21.1664033,31.7989621 23.4821413,30.7250233 C25.9503605,29.5780611 25.7726488,27.1111865 26.8515348,27.2319772 C27.9386482,27.3527678 28.9588455,29.6412017 30.6438165,31.8714365 C32.3276904,34.0978279 33.9940126,41.5270024 31.4237737,41.6856774 L31.4237737,41.6856774 Z M13.3448909,16.4541563 C13.0662564,16.020408 12.9560092,15.9720917 13.1962492,15.4900272 C13.4370377,15.0085117 13.7540668,14.8350124 13.8560865,14.4644047 C14.1588547,13.3800341 13.8796717,13.8038994 14.1977977,13.4382332 C14.2597775,13.2790091 13.9180662,13.7413079 16.6281709,11.8141479 C19.0689654,10.0747624 24.4112887,6.02772638 25.2285435,6.09525934 C26.0139857,6.15290943 28.8387255,18.1984832 28.357697,18.015101 C27.8766685,17.8366602 26.4950142,17.7740687 25.6475923,17.2343541 C24.8105918,16.6946395 24.7475151,15.3653932 24.4441983,14.8251295 C24.1463666,14.285964 23.5446696,13.6787164 22.8848323,13.7413079 C22.2206071,13.8038994 22.4613956,14.285964 21.7971704,14.2228234 C21.1373331,14.1607809 21.2585501,14.3436141 21.2585501,14.3436141 L21.2004098,14.7680285 C21.2004098,14.7680285 20.8340164,14.5846463 20.6563046,14.7048879 C20.4785928,14.8251295 20.0551561,14.9459202 19.6311709,14.7048879 C19.2121221,14.4644047 18.6115221,14.1031308 18.2500652,14.285964 C17.8891567,14.4644047 17.7059599,16.632048 16.8684109,16.6946395 C16.022086,16.7528386 14.9431999,17.595628 13.373961,19.3448963 C13.0333468,19.7253869 12.8210799,20.3419683 12.695475,21.064516 C12.7963977,19.7396621 12.936812,18.6750572 13.0761292,18.4680659 C13.7403544,17.4753864 13.6772777,16.9647713 13.3448909,16.4541563 L13.3448909,16.4541563 Z M53.1451996,47.7081897 C48.8137492,47.3469158 43.3984762,47.2266742 43.3984762,47.2266742 C43.3984762,47.2266742 46.7678697,40.2400328 46.8885382,37.9515989 C47.0086582,35.663165 45.6845957,34.5793434 45.6845957,33.736005 C45.6845957,32.8926666 45.6845957,30.6042327 45.5644757,29.4001695 C45.4443557,28.1955572 44.2404132,26.8707033 43.5196932,26.1476065 C42.7973277,25.4250587 37.2624833,22.413528 36.6602379,21.4504971 C36.0579924,20.4869171 33.7718729,10.8505679 32.9299359,9.16444012 C32.0879989,7.47776331 29.561091,3.02113712 28.9588455,2.53962164 C28.357697,2.05755711 26.8515348,-0.16828527 25.589452,0.0101554734 C24.3284663,0.188047168 11.1788914,9.29895699 9.70673579,16.1505325 C8.20496154,23.1366248 7.8396651,25.9982653 7.78152482,26.9909449 C7.72393304,27.9836245 7.78152482,29.4001695 7.54073633,30.2429588 C7.29994784,31.0862972 3.4495259,46.7446097 2.72770891,49.3948665 C2.00534342,52.0445743 -0.160656039,57.2242973 3.4495259,58.6693928 C7.05970783,60.1144883 19.5735791,59.5127312 22.5815156,58.6693928 C25.589452,57.8255053 27.51576,56.982716 28.597937,56.982716 C29.6806625,56.982716 30.282908,56.8630234 31.6069704,57.3445389 C32.9299359,57.8255053 34.1327814,57.4642314 34.1327814,57.4642314 C34.1327814,57.4642314 34.6149069,58.4865596 35.5149841,59.6329728 C36.4243858,60.7843274 38.3452088,60.360462 40.3905398,59.2711499 C41.896702,58.4667939 42.6766593,58.5486021 44.2404132,58.4283605 C45.8058127,58.3075698 58.3191355,56.6840336 58.921381,53.3117781 C59.5225295,49.9384245 57.4771985,48.0694636 53.1451996,47.7081897 L53.1451996,47.7081897 Z" id="Stroke-243" stroke="#4B4848" stroke-width="2" fill="#FFFFFF"></path>
                            </g>
                        </g>
                    </g>
                </g>
            </g>
        </g>
    </g>
</svg>